<svg id="Layer_35" enable-background="new 0 0 64 64" height="512" viewBox="0 0 64 64" width="512" xmlns="http://www.w3.org/2000/svg" xmlns:xlink="http://www.w3.org/1999/xlink"><linearGradient id="SVGID_1_" gradientUnits="userSpaceOnUse" x1="32" x2="32" y1="63" y2="1"><stop offset="0" stop-color="#9f2fff"/><stop offset="1" stop-color="#0bb1d3"/></linearGradient><path d="m51.06 29.091c2.541-3.05 3.94-6.914 3.94-10.884v-.207c0-9.374-7.626-17-17-17s-17 7.626-17 17v.207c0 3.97 1.399 7.834 3.94 10.884l3.258 3.909h-27.198v30h62v-30h-15.198zm-28.06-10.884v-.207c0-8.271 6.729-15 15-15s15 6.729 15 15v.207c0 3.502-1.235 6.913-3.477 9.603l-10.651 12.782c-.432.52-1.311.521-1.744-.001l-10.651-12.781c-2.242-2.69-3.477-6.101-3.477-9.603zm22 28.064c1.583-.362 2.959-.862 4-1.489v4.218h-4zm-7-1.271c-7.117 0-11-1.981-11-3 0-.641 1.908-2.047 6.456-2.691l2.135 2.562c.597.718 1.475 1.129 2.409 1.129s1.812-.411 2.408-1.128l2.136-2.563c4.548.644 6.456 2.05 6.456 2.691 0 1.019-3.883 3-11 3zm-35-10h26.865l2.103 2.524c-4.396.809-6.968 2.435-6.968 4.476 0 3.282 6.54 5 13 5 1.703 0 3.407-.123 5-.359v4.359h8v-16h4v16h6v4h-18v6h-40zm42 26v-4h16v4zm16-12h-4v-14h4zm-12-14v4.202c-1.185-.717-2.866-1.292-4.968-1.679l2.103-2.523zm-3-8c1.654 0 3-1.346 3-3v-10c0-1.654-1.346-3-3-3h-1.382l-1.171-2.342c-.511-1.022-1.539-1.658-2.683-1.658h-5.528c-1.144 0-2.171.636-2.683 1.658l-1.171 2.342h-1.382c-1.654 0-3 1.346-3 3v10c0 1.654 1.346 3 3 3zm-13-7c0-2.757 2.243-5 5-5s5 2.243 5 5-2.243 5-5 5-5-2.243-5-5zm-3 5c-.551 0-1-.448-1-1v-10c0-.552.449-1 1-1h2.618l1.724-3.447c.17-.341.513-.553.894-.553h5.528c.381 0 .724.212.894.553l1.724 3.447h2.618c.551 0 1 .448 1 1v10c0 .552-.449 1-1 1h-3.111c1.301-1.272 2.111-3.042 2.111-5 0-3.859-3.14-7-7-7s-7 3.141-7 7c0 1.958.81 3.728 2.111 5zm10-13h-4v-2h4zm-2 5c-1.654 0-3 1.346-3 3s1.346 3 3 3 3-1.346 3-3-1.346-3-3-3zm0 4c-.551 0-1-.448-1-1s.449-1 1-1 1 .448 1 1-.449 1-1 1zm-5 8h2v2h-2zm6 2h-2v-2h2zm2-2h2v2h-2zm-31 12c-2.757 0-5 2.243-5 5 0 2.414 1.721 4.434 4 4.899v8.101h2v-8.101c2.279-.465 4-2.484 4-4.899 0-2.757-2.243-5-5-5zm0 8c-1.654 0-3-1.346-3-3s1.346-3 3-3 3 1.346 3 3-1.346 3-3 3zm3 8h2v2h-2zm4 0h2v2h-2zm4 0h2v2h-2zm4 0h2v2h-2zm14-8v2h-2v-2zm-2 4h2v2h-2zm0 4h2v2h-2zm-8 0h2v2h-2zm4 0h2v2h-2zm-26-18h-2v-2h2zm4 0h-2v-2h2zm2-2h2v2h-2z" fill="url(#SVGID_1_)"/></svg>